/* XPM */
static char *result[] = {
/* columns rows colors chars-per-pixel */
"40 40 214 2 ",
"   c gray3",
".  c #160606",
"X  c #1B1104",
"o  c #151515",
"O  c #1D1D1D",
"+  c #250000",
"@  c #2C0303",
"#  c #310000",
"$  c #3A0000",
"%  c #2B1414",
"&  c #261A1A",
"*  c #2C1B1B",
"=  c #371010",
"-  c #3A1515",
";  c #331B1B",
":  c #3A1B1B",
">  c #292905",
",  c #322F00",
"<  c #393506",
"1  c #24231E",
"2  c #2B2B1C",
"3  c #393813",
"4  c #343319",
"5  c #212121",
"6  c #2D2424",
"7  c #2D2D23",
"8  c #2D2D2D",
"9  c #342424",
"0  c #3C2525",
"q  c #352C2C",
"w  c #3A2D2D",
"e  c #343424",
"r  c #3B3B23",
"t  c #32322B",
"y  c #3B3A2C",
"u  c #353535",
"i  c #3A3434",
"p  c #3D3D3D",
"a  c #440000",
"s  c #4B0000",
"d  c #410800",
"f  c #4C0909",
"g  c #540000",
"h  c #5D0000",
"j  c #560B0B",
"k  c #5B0808",
"l  c #4C1300",
"z  c #4D1B00",
"x  c #571604",
"c  c #461B1B",
"v  c #630000",
"b  c #6B0000",
"n  c #730000",
"m  c #7B0000",
"M  c #6D1E00",
"N  c #6E1010",
"B  c #741616",
"V  c #741C1C",
"C  c #7B1D1D",
"Z  c #4B2700",
"A  c #5A2A03",
"S  c #4C3A00",
"D  c #533300",
"F  c #453811",
"G  c #673400",
"H  c #7A3300",
"J  c #442424",
"K  c #422C2C",
"L  c #482B2B",
"P  c #502525",
"I  c #5C2B2B",
"U  c #4D322C",
"Y  c #443434",
"T  c #403F32",
"R  c #4D3C3C",
"E  c #523D3D",
"W  c #662C2C",
"Q  c #7D2323",
"!  c #732C2C",
"~  c #7B2C2C",
"^  c #643333",
"/  c #6B3232",
"(  c #7A3131",
")  c #404000",
"_  c #4C4A00",
"`  c #4C4B0B",
"'  c #514E00",
"]  c #564805",
"[  c #545200",
"{  c #595502",
"}  c #5D5A00",
"|  c #53510D",
" . c #59560B",
".. c #5D5B0B",
"X. c #4C4A12",
"o. c #424119",
"O. c #484719",
"+. c #48461F",
"@. c #504E10",
"#. c #575616",
"$. c #644301",
"%. c #6A4800",
"&. c #6E5500",
"*. c #625E00",
"=. c #765F00",
"-. c #605E16",
";. c #656201",
":. c #696600",
">. c #6D6A00",
",. c #65630B",
"<. c #6D6B0B",
"1. c #726E00",
"2. c #757201",
"3. c #797500",
"4. c #7C7A00",
"5. c #7A7A0A",
"6. c #656315",
"7. c #7C7A10",
"8. c #444323",
"9. c #484721",
"0. c #4B4B21",
"q. c #594E28",
"w. c #434334",
"e. c #58573B",
"r. c #63632A",
"t. c #757226",
"y. c #434343",
"u. c #4D4844",
"i. c #4D4D4D",
"p. c #564545",
"a. c #525247",
"s. c #525252",
"d. c #706E41",
"f. c #830000",
"g. c #8B0000",
"h. c #840909",
"j. c #930000",
"k. c #9B0000",
"l. c #920C0C",
"z. c #9B0B0B",
"x. c #961300",
"c. c #881515",
"v. c #841B1B",
"b. c #971212",
"n. c #9A1212",
"m. c #A30000",
"M. c #AB0000",
"N. c #A40B0B",
"B. c #AB0B0B",
"V. c #B40000",
"C. c #BB0000",
"Z. c #A51212",
"A. c #AC1313",
"S. c #B31313",
"D. c #BD1212",
"F. c #892400",
"G. c #892800",
"H. c #952F00",
"J. c #8C3600",
"K. c #8C3A00",
"L. c #963400",
"P. c #A22E00",
"I. c #B72100",
"U. c #B33A00",
"Y. c #832525",
"T. c #8E2424",
"R. c #872E2E",
"E. c #962424",
"W. c #8E3232",
"Q. c #C20000",
"!. c #D50000",
"~. c #C11515",
"^. c #874E00",
"/. c #815C00",
"(. c #9B6200",
"). c #827D00",
"_. c #827A0A",
"`. c #907000",
"'. c #848300",
"]. c #898601",
"[. c #8B8A00",
"{. c #87840C",
"}. c #918D00",
"|. c #949200",
" X c #9B9500",
".X c #9E9B00",
"XX c #92900E",
"oX c #918D19",
"OX c #979413",
"+X c #A29D00",
"@X c #A49E0A",
"#X c #A5A100",
"$X c #ABA500",
"%X c #AEA900",
"&X c #ACA80E",
"*X c #B4AD00",
"=X c #B3AD0D",
"-X c #B7B000",
";X c #BBB400",
":X c #BAB408",
">X c #A6A115",
",X c #B5B011",
"<X c #888634",
"1X c #C0B600",
"2X c #C3BC00",
"3X c #C8BF00",
"4X c #C0BA15",
"5X c #C4C000",
"6X c #CBC200",
"7X c #D2C700",
"8X c #D4CA00",
"9X c #D8CE00",
"0X c #DCD200",
"qX c #E4D800",
/* pixels */
"p y.p p p y.p p p y.p p p p p p y.y.y.y.p p w.p p y.y.y.y.y.p p u p p y.y.p y.u ",
"W D.A.A.A.A.S.n.E s.D.A.A.A.A.A.A.A.A.A.A.A.n.R i.~.~.D.S.S.S.A.A.B.Z.Z.Z.n.b.I ",
"R.C.m.M.k.k.k.m w s.!.k.k.k.k.j.k.M.j.m.f.M.n w y.Q.V.j.M.k.g.j.M.M.k.g.m.j.g.c ",
"~ k.k.f.k.f.j.g q s.V.m.j.g.j.g.F.L.J.P.G.H.J.q.e.M.j.m g.g.f.g.j.j.j.g.j.g.n : ",
"! k.k.g.k.m f.g w i.C.k.g.j.L.1.[.3X3X%X6X9X0X0X*X(.x.f.j.f.n g.j.j.j.f.j.g.n ; ",
"W g.n g v g b s 8 y.g.n H 3.4.4.}.].+X$X2X3X0X X_.).3./.M b h v v h v h v v v ; ",
"E K 0 9 9 9 * * 8 u.U ] '.#X2X6X3X X'..X+X$X6X;X%X1X|.|.1.F J 0 9 ; ; 9 0 9 9 q ",
"E.v.C Y.Y.Q C C C V -.3.4.*X0X;X}.[.1.4.3.2.]. X+X2X1X+X1.2.q.W Q R y.E.E.T.T.T.",
"M.k.m.j.g.k.j.j.k.`.).3.|.0X#X|.#X} [ [ [ } '.[.$X[.5X0X2.>.}.A h i y.!.k.m.k.M.",
"f.k.j.m f.j.f.g.H :.2.}.2.].].>.4._ ) ) ) _ [.:.).>.[.4.'.'.1.*.z q i.V.k.k.g.j.",
"j.f.j.m g.f.g.^.[.3.;X;X).1. X>...< 1 4 <.e 3 ` ].2. X;.+X%X X>..Xe u V.j.g.j.f.",
"m m v n f.n n ] >.*X5X$X2.'.2.` 5 5 4 2.[.>Xt t r } ).3.[.2X*X+X;.> O m.f.b m m ",
"- - - - - = G 1.;X6X|.+X>.*. .5 5 4 2.'.'.).9.u 8 o.<.:.1.;X-X-X.X>.> j = - - - ",
"p./ I / W ^ _.}.*X8X}. X1.-.1 5 3 2.'.'.>.r y.d.e.q T 1.4.+X;X}. X|.< ; P ^ ^ E ",
"W.C.C.M.M.I.=.+X7X$X-X2.).2 5 4 2.'.'.2.e u <X6X4Xy.8 #.'.}.qX3X6X>.&.g m j.j.J ",
"~ M.k.j.m K.'.1.#X+X$X1.F 5 5 >.'.'.4.6.r <X2X].|.,XT 8 { ).*X%X].:.|.a s b v ; ",
"! m.k.b n K.'.' 3.4.>.[.3 2 7 0.>.'.'..X5X:X[.'.'..X=Xy ,.[.:.4.*.*.|.a s h v ; ",
"( j.n b n J.;.} 6X2.4.>.4 4.XXu 9.>.'.'..X[.4.@.4.'..X,X0.4.:.%X X{ 4.a a h v ; ",
"^ c.j j j A 1.*X6X*X.X2.<.'.+X>Xw.9.2.'.'.4.,.y O.4.'.[...>.5X;X*X%X*.@ # f f 9 ",
"i.i.y.y.u 8.{ ;X6X[.:.5.e >.'.$X,Xt.[.'.'.'.#XoXu ` 4.| 0.1.'.5X|.'.[ o o 8 p p ",
"V.V.V.C.C.U.4.>.#X*X$X2.O.7 ;.'.+X5X[.2...'.'.#X>Xu o.p 2.>.8X8X}.;.[.g g f.M.M.",
"j.j.k.m.k.F.;.}.9X+X).*.X.8 e :.'.[.2.o.r 5.'.'.#Xr.p a.<.;.#X-X#X2.;.a s h j.f.",
"j.g.j.k.g.g.$.' +X-X%X|.>.t 8 e ,.4.o.8 &X|.'.4.| 8 u r.4.#X8X.X>.[ Z a a h f.f.",
"g.f.g.j.g.f.`.:.%X9X.X}.>. .y q e o.y &X|.'.'.@.t p e.].>.*X$X;X}.4.G a s v g.f.",
"g v h h h g A '  X2X3.} *.>.7.p 8 8 7.+X].'.| t p e.5.2.} :.'.;X>.] l a s v b h ",
"p u u u u u t | [ :.1.;X1X1X*.6.a.y.t :.4.X.8 T r.;.>.7X+X-X[ ;.[ ,   o 5 8 u u ",
"/ S.Z.N.Z.Z.l.j ).).;.|.0X%X;X3.7.OX0.+...+.{.@X.X2.#X-X.X'.;.].&.$ f k h.b.l.I ",
"( M.f.g.g.j.g.n $.2.*..X.X0XqX*X$X|.;X-X2X9X9X#X[.#X6X|.|.[.} 2.z s s h g.f.m ; ",
"~ k.g.m m f.f.g.g D >.2.'.|.-X6X9X4..X%X5X6X6X X6X#X|.#X2.1.*.l a a s m m f.f.; ",
"~ M.f.g.g.f.m g.v s %.>.;.} 4.+X#X4.|.+X#X#X#X'..X.X:.>.} 4.x s a a h v g.f.n ; ",
"! j.m b n m m m n g s s :.4.2.|.:.>.'.|.|.|.|.} 2..X>.[.D a $ a a s h b b b b ; ",
"R L 0 0 J 0 0 w K w % . X > ' >.1.{ >.1.2.>.2.;.2.;.[ X . . X * * 9 ; % 9 0 9 q ",
"T.T.T.Y.Y.Y.Y.W.W.Y.V Y 6 @ @ $.$.S _ _ _ _ _ D $.Z + + @ & 6 V C v.v.N B Q Y.Y.",
"j.f.M.g.m j.M.g.f.f.f.0 y.l.h s s a $ d d d d a $ a a $ a % 8 z.g.j.f.k.j.j.g.f.",
"j.b g.f.m f.f.n m m v 9 y.B.m v h s a a a a a $ a a a a s % 8 z.f.n g.j.m f.m n ",
"f.m f.n m j.j.b m g.v 9 y.B.m f.f.b b g g g g s g s g h g ; y.Z.f.m g.f.f.m n j.",
"m f.m g.m f.f.m m f.n 9 u.N.m f.m m m n v g b h n v b m b ; p Z.f.n b j.g.b m m ",
"b v v h v v b v h v g 9 i.z.g v h v v b g h b v b v v v h ; u.c.g h v b b b v v ",
"q q q q q q w q w q q i s.p.i i q w q i q q w q 9 6 1 6 6 6 y.y.q q w q 6 6 9 q ",
"i.i.i.i.i.i.s.s.s.i.s.s.s.s.s.s.s.s.s.s.i.i.i.s.i.i.i.i.i.i.i.s.i.s.i.s.i.i.s.i."
};
