/* XPM */
static char *result[] = {
/* columns rows colors chars-per-pixel */
"40 40 155 2 ",
"   c #010101",
".  c gray4",
"X  c #121212",
"o  c #1D1D1D",
"O  c #3A1C00",
"+  c #242424",
"@  c #2C2C2C",
"#  c #333333",
"$  c #3B3B3B",
"%  c #4E0707",
"&  c #5A0900",
"*  c #571F1F",
"=  c #691111",
"-  c #721A1A",
";  c #7B1C1C",
":  c #503216",
">  c #56381B",
",  c #5B3D22",
"<  c #4B3C3C",
"1  c #553C3C",
"2  c #5E3838",
"3  c #642323",
"4  c #7B2323",
"5  c #752C2C",
"6  c #7E2A2A",
"7  c #6D3939",
"8  c #793434",
"9  c #4F4D20",
"0  c #504233",
"q  c #6C4D31",
"w  c #6F5134",
"e  c #434343",
"r  c #4C4C4C",
"t  c #584D4D",
"y  c #5B5A4A",
"u  c #535353",
"i  c #5E5353",
"p  c #5C5C5C",
"a  c #725B5B",
"s  c #626252",
"d  c #646464",
"f  c #6C6161",
"g  c #6F6862",
"h  c #6B6B6B",
"j  c #796464",
"k  c #737373",
"l  c #7B7B7B",
"z  c #800000",
"x  c #920000",
"c  c #9A0D0D",
"v  c #8A1C1C",
"b  c #9E1313",
"n  c #AB0000",
"m  c #B50000",
"M  c #BA0000",
"N  c #B10E0E",
"B  c #B71717",
"V  c #882424",
"C  c #822A2A",
"Z  c #9C2222",
"A  c #863838",
"S  c #983A3A",
"D  c #AB2323",
"F  c #C20000",
"G  c #CA0000",
"H  c #C90E0E",
"J  c #D40000",
"K  c #DB0000",
"L  c #C71717",
"P  c #D41717",
"I  c #D81818",
"U  c #E30101",
"Y  c #EB0000",
"T  c #E60909",
"R  c #EB0E0E",
"E  c #FC0000",
"W  c #ED1111",
"Q  c #F41111",
"!  c #F31E1E",
"~  c #FB1919",
"^  c #CA2525",
"/  c #EC2020",
"(  c #F42D2D",
")  c #F73636",
"_  c #99602B",
"`  c #8A623E",
"'  c #966335",
"]  c #8A4A4A",
"[  c #815B5B",
"{  c #8A5D5D",
"}  c #A34A4A",
"|  c #816969",
" . c #886868",
".. c #946666",
"X. c #8A7B7B",
"o. c #9A7070",
"O. c #9B7F7F",
"+. c #B87070",
"@. c #B57D7D",
"#. c #F84B4B",
"$. c #EB5151",
"%. c #DC7B7B",
"&. c #A09618",
"*. c #B2AD15",
"=. c #92852F",
"-. c #BDB326",
";. c #CB8A13",
":. c #CAB105",
">. c #CEB509",
",. c #D1B80D",
"<. c #D6BE12",
"1. c #D9BF14",
"2. c #CC9121",
"3. c #EBB337",
"4. c #D9C015",
"5. c #E0C71C",
"6. c #F3D034",
"7. c #C8A07C",
"8. c #CFB479",
"9. c #E5C243",
"0. c #E7D56F",
"q. c #838383",
"w. c #8B8B8B",
"e. c #918686",
"r. c #939393",
"t. c #9B9B9B",
"y. c #A98888",
"u. c #BA8383",
"i. c #A59586",
"p. c #A49994",
"a. c #A3A3A3",
"s. c #ACACAC",
"d. c #B4B4B4",
"f. c #BBBBBB",
"g. c #D79898",
"h. c #C9A6A6",
"j. c #DEA5A5",
"k. c #CEB0B0",
"l. c #D3BCBC",
"z. c #D8B8B8",
"x. c #E5A6A6",
"c. c #E6A9A9",
"v. c #E8B1B1",
"b. c #FABABA",
"n. c #CFCE99",
"m. c #F6E29A",
"M. c #E8D3A8",
"N. c #C4C4C4",
"B. c #CCCCCC",
"V. c #D2D2D2",
"C. c #DCDCDC",
"Z. c #EBCFCF",
"A. c #E3D2D2",
"S. c #EDEDED",
"D. c gray98",
/* pixels */
"$ $ $ $ $ $ 0 h h k h h h k h k d @ r d h h d h d u $ # # # $ # # $ $ $ $ $ $ $ ",
"p p p p s u p C.B.B.V.V.V.B.B.V.r.@ w.f.a.a.t.t.t.w.e @ h q.q.q.q.h p y u u u u ",
"d.s.a.p.0.# p V.d.f.s.d.d.d.s.a.p @ t.s.r.t.a.a.t.h $ @ r.C.V.V.V.B.d.n.8.s.s.s.",
"s.s.7.9.m.;.,.=.9 *.<.<.4.4.4.<.,.:.<.4.<.<.<.4.<.>.>.>.1.5.4.&.@ -.5.M.6.3.p.t.",
"d.r.i.` 2., q 0 c z O : > > > > > > > > > > > > > > > > > > O & * + w _ ' w g a.",
"t.t.w.d r + r w.! Y J n x % 3 5 A k  .A 8 f u 7 7 5 6 6 V M F M C s l q.k l q.w.",
"k k d e # + r d.~ Y K G m n m F / a.x.U M o.r b x m J Q ~ E K F C d l k h h h h ",
"$ # @ @ + @ r t.! Y K G m n n G / a.x.Y m o.r b x M J Q ~ E K F 4 e e e e $ $ $ ",
"@ @ @ # @ # r l W Y K G m n n F ! a.x.U m o.r b x M J Q ~ E K F - # # @ @ + @ + ",
"e $ # $ $ $ r d R U K G m n n F ! a.x.U m o.r b x M J Q ~ E K F = @ e e e e $ < ",
"s.s.s.s.a.d @ u T Y K G m n n F ) a.x.U m o.r b x m J Q ~ E K F C d t.d.d.s.d.d.",
"s.a.a.s.w.p @ r T Y K G M n n ^ b.r.Z.v.h.t.r { C m J Q ~ E K M 6 h a.f.f.f.f.f.",
"a.t.t.t.l u @ r T Y K G M n Z w.t.w.t.r.q.h r r $ [ H Q ~ E K F C h w.t.r.r.q.r.",
"t.r.r.r.l r @ r T Y K G m Z e.p t.q.f.a.d.a.d e u u ..Q ~ E K F C d w.t.t.w.w.r.",
"r.q.q.t.l e @ u W Y K G m ] $ w.f.C.u $ r.d.a.l $ k < $.~ E K F C h q.t.t.q.q.r.",
"r.t.r.w.h $ @ w.! Y K G S k d r.N.d e p f.w.o @ h r p t.( E K F 6 u k l l w.w.r.",
"k h h p e # @ w.c.c.u...| $ e N.k u r k s.#     @ d e k j.g.@.{ 1 # e e r r p p ",
"$ # @ @ # # $ w.N.a.l u r k k B.f.p e $ # o .     e $ s.a.t.h r @ + @ @ + + @ # ",
"u h w.r.r.r.u q.) / I L } l l a.S.N.u $ @ + d # . e e S.#.~ P B 5 r p u u r $ $ ",
"q.f.V.f.f.s.d q.! Y K G } l l $ a.C.u $ + + r w.p q.e C.) E K M 6 h a.s.a.a.h r ",
"r.f.t.r.a.t.h w.V.l.r.d u k l # e u e r h o   r k t.< f.d.s.q.p r d r.r.t.r.d r ",
"r.d.t.t.a.w.h l z.k.y.j f r r w.u r p d.N.p   . r h h l k.h.O.a t h q.t.r.t.d e ",
"r.f.t.t.t.t.d k ! Y J F D i d p.N.s.B.S.f.r   . p u p r.( E J F C h q.t.t.t.u $ ",
"r.f.a.t.t.t.p h Q Y K G M { k r.f.D.D.S.a.+ X d # k p %.~ E K M - $ r r u r $ # ",
"w.f.r.t.t.r.d u W Y K G m B O.r.N.r.S.S.N.q.u # u r X./ ~ E J F = + @ @ # @ @ $ ",
"r.f.t.r.a.r.r $ T Y K G m n ^ y.k f.q.l h u e p @ X.L Q ~ E K M ; u q.r.r.t.h r ",
"w.d.a.t.t.q.# # T Y K G m n n ^ +.w.A.Z.l.s.e f 8 N J Q ~ E K F C h f.B.B.d.d $ ",
"w.d.t.t.t.l @ $ T Y K G m n n F ! a.x.U m o.r b x M J Q ~ E K F C h t.s.s.r.r $ ",
"k a.t.w.h p @ $ T Y K G m n n F ! a.x.U m o.r b x M J Q ~ E K F C d w.a.t.q.r # ",
"d w.l h u # @ e T Y K G m n m G ! a.x.U m o.r b x M J Q ~ E K F C h w.w.r.w.r # ",
"r # @ @ # @ # e T Y K G m n n F ! a.x.U m o.r b x M J Q ~ E K F C d q.r.q.k r @ ",
"r p u r $ @ $ e T Y K F m n n F ! a.x.U m o.r b x M K Q ~ E K M C h q.w.w.l $ # ",
"d s.f.N.d.w.k d T Y K G m n n F ! a.x.U m o.r b x M J Q ~ E K F 4 u p p p u @ @ ",
"h B.s.s.N.N.B.f.! Y K G m n n F ! a.x.U m o.r b x M J Q ~ E K F = + + + + @ # e ",
"h B.t.a.r.t.a.s.Q Y K G m n m F ! a.x.U m o.r b x n J Q ~ E K M = + # # # $ e r ",
"h f.a.t.r.r.r.a.w.d d d d p r 2 6 p j ; - 1 $ + o * ; D D B b v # d l l h d u u ",
"h r.h h d k h k h d d d d d p p p p p u e @ e k l h d p u p d k l t.s.a.a.s.k e ",
"u r @ @ @ @ @ @ @ @ @ @ @ @ @ @ @ @ @ @ @ + $ h l h k k p t.a.t.t.a.t.t.a.r.r e ",
"r $ $ # @ # # @ @ @ @ @ @ @ # @ @ @ # @ @ @ # r e $ @ @ # p p u u u r u u r $ e ",
"# # # @ # @ @ @ @ @ @ @ @ + @ @ @ + @ + @ @ @ # # @ @ @ + @ @ o o + + o o + + @ "
};
