/* XPM */
static char *result[] = {
/* columns rows colors chars-per-pixel */
"40 40 212 2 ",
"   c #101010",
".  c #39390D",
"X  c #2B2B18",
"o  c #3D3D15",
"O  c #232323",
"+  c #2C2B24",
"@  c #2C2C2C",
"#  c #302F22",
"$  c #363627",
"%  c #34342C",
"&  c #333333",
"*  c #3C3C32",
"=  c #3B3B3B",
"-  c #403F27",
";  c #535002",
":  c #454415",
">  c #535112",
",  c #57551C",
"<  c #5D5B1C",
"1  c #6B6807",
"2  c #787504",
"3  c #79770D",
"4  c #6A6817",
"5  c #68651B",
"6  c #706F1F",
"7  c #757212",
"8  c #7B7A17",
"9  c #74731B",
"0  c #484823",
"q  c #43422B",
"w  c #4B4A2B",
"e  c #5D5C22",
"r  c #535229",
"t  c #5C5B2C",
"y  c #424232",
"u  c #525232",
"i  c #5C5A37",
"p  c #52523B",
"a  c #6B6A28",
"s  c #7B7A24",
"d  c #646334",
"f  c #696731",
"g  c #6D6B3A",
"h  c #787739",
"j  c #434343",
"k  c #4B4B42",
"l  c #4B4B4B",
"z  c #595946",
"x  c #555549",
"c  c #535353",
"v  c #5C5C5C",
"b  c #6A6946",
"n  c #63634D",
"m  c #706F46",
"M  c #747343",
"N  c #7C7C44",
"B  c #74734B",
"V  c #7B7A4D",
"C  c #646455",
"Z  c #6A6A52",
"A  c #63635B",
"S  c #6C6C5C",
"D  c #747250",
"F  c #7C7B53",
"G  c #77765B",
"H  c #646464",
"J  c #6B6B61",
"K  c #6C6C6C",
"L  c #747465",
"P  c #7E7D64",
"I  c #75756A",
"U  c #7B7A69",
"Y  c #747474",
"T  c #7A7972",
"R  c #7B7B7B",
"E  c #817D05",
"W  c #827F15",
"Q  c #817F54",
"!  c #807E6A",
"~  c #828100",
"^  c #8C8B01",
"/  c #8C8A05",
"(  c #9D9902",
")  c #97940A",
"_  c #878517",
"`  c #8C8C13",
"'  c #928D17",
"]  c #959413",
"[  c #9C9A12",
"{  c #9B971C",
"}  c #A29C01",
"|  c #A19D17",
" . c #A4A200",
".. c #AAA401",
"X. c #ADA800",
"o. c #A5A10A",
"O. c #ADA709",
"+. c #B4AD00",
"@. c #B3AF0C",
"#. c #B6B000",
"$. c #BBB500",
"%. c #BBB606",
"&. c #A8A415",
"*. c #B1AB19",
"=. c #B9B415",
"-. c #848421",
";. c #8B8925",
":. c #84832A",
">. c #918D25",
",. c #959323",
"<. c #858334",
"1. c #8A8935",
"2. c #8B8A3C",
"3. c #989732",
"4. c #979338",
"5. c #9B993A",
"6. c #A29F2D",
"7. c #ADA826",
"8. c #BBB523",
"9. c #A9A63A",
"0. c #B2AD31",
"q. c #BAB439",
"w. c #C2BA05",
"e. c #C4BC29",
"r. c #C2BB34",
"t. c #CDC500",
"y. c #D6CC00",
"u. c #CFC715",
"i. c #CBC31B",
"p. c #CAC229",
"a. c #CAC33F",
"s. c #8C8B43",
"d. c #888648",
"f. c #98954A",
"g. c #858553",
"h. c #8C8B57",
"j. c #84835A",
"k. c #8D8D5B",
"l. c #929156",
"z. c #99975A",
"x. c #ABA747",
"c. c #A7A457",
"v. c #ABA95F",
"b. c #B1AD57",
"n. c #B5B151",
"m. c #B9B558",
"M. c #858566",
"N. c #8D8C62",
"B. c #84836D",
"V. c #8C8A6A",
"C. c #949362",
"Z. c #95956C",
"A. c #9F9D6B",
"S. c #848374",
"D. c #888777",
"F. c #8C8B74",
"G. c #85857C",
"H. c #8C8B7A",
"J. c #969672",
"K. c #989772",
"L. c #9E9C71",
"P. c #94937D",
"I. c #9D9C7D",
"U. c #A19F74",
"Y. c #A09F7C",
"T. c #A4A265",
"R. c #ACA962",
"E. c #ABA869",
"W. c #B7B666",
"Q. c #A9A776",
"!. c #ADAB7B",
"~. c #B4B17A",
"^. c #C3BE52",
"/. c #C2BF70",
"(. c #C7C24E",
"). c #CBC756",
"_. c #848484",
"`. c #8D8D82",
"'. c #8B8B8B",
"]. c #939386",
"[. c #9C9C83",
"{. c #949489",
"}. c #9C9C8B",
"|. c #939393",
" X c #9D9D93",
".X c #9B9B9B",
"XX c #A09F89",
"oX c #A09F93",
"OX c #A4A384",
"+X c #ABA983",
"@X c #A4A38A",
"#X c #ABAA8B",
"$X c #BCBA89",
"%X c #A5A499",
"&X c #A9A898",
"*X c #B6B597",
"=X c #A2A2A2",
"-X c #AFAFA3",
";X c #ABABAB",
":X c #BFBEA3",
">X c #B4B4A9",
",X c #BCBCAC",
"<X c #B4B4B4",
"1X c #BCBCBC",
"2X c #CDCB84",
"3X c #D9D699",
"4X c #DEDBA6",
"5X c #C7C6B6",
"6X c #C2C2C2",
"7X c gray80",
"8X c LightGray",
"9X c #DADADA",
/* pixels */
"= = = = = = C 5 5 5 K K K Z < d = j v K K J 5 t l l @ = & & & = = = = = = = = X ",
"v v v v c c >X^.$.#.-X).2X5Xq.q.j H <X;Xm.n. .) Z c @ x ;.` h Y I Z x x z c c = ",
"Y.XX.X'.l c <XW. .2 v.=.#X;XZ.;.& K 1X|.P.J.9 4 J l @ 5 t. .B ;X).y.<.s.w.M.;XR ",
"T.>.R R = l <XW.~ h ].@Xz.H._.h & j T.[ Q.|.B n v j O 5 +.g {.p.x.[ f M _ i P.Y ",
"{.! |.Y & j <X*XF G.=X;Xs.{.'.Y @ j Y C.L.|.'._.c & % < 8 L F.=.N.7 t Y Y K ;.v ",
"=X_.Y l & & <X1X'.'.8.`.'.'..XR @ & c v l = = = @ @ & v _.'.Q.'.|.R H |.|.|._.v ",
"Y K c = @ & <X1X_.{.$.j..X.X.XY & @ j & & = & = j * & v =Xh.C }.f.R Y R Y R Y v ",
"= & @ O O = '.7X|.z.[ B.|._.k.Y j @ l K 9.:X6X6X9X3 * c '.Y H C , j l j = = = O ",
"@ @ @ & & j K 1X.X|.`.|.'.'.P v = + c ).@.I.#X!.x.g $ * y = = = & & % O @ O O   ",
"j & & = & j l =X=X.X9.S.|.|.<.v l O v a.:.].i.c.1.u q = l j = & j = j j j j j @ ",
"v.-X#XK.'.@ l R #XV 1.J.R '.R K l O f p.R [.%.! j.l & ;.+.N j H Y.v.&XU.oXR.!.R ",
"..0.*.8 H @ j v {.H _.R Y R H K l   x G._.x.b A H l @ 6 _ A @ G.i.=.^.3.@X$.,.N ",
"Z.7.^ 4 v % j l Y K v c c c j = @   l '.v c & @ @ @ @ F :.H @ H.x.`.5.j.[.+.;.f ",
".X5.d S H @ = c j @ O O O O O @ @ @ = H k o o q = @ j =XXXY & R .X#X%X{.|.c.h v ",
"9.U R _.v @ = d.' 3 K R H & l _ { ' %X7X2X#.$.o.s @ Y 7X6X_.@ R .XQ..X!.OX|.|.Y ",
"` P.'.R l @ q #.[ F Y Y c l N (.N.[.+X.XZ.N.` ^ 1 @ S.$X=X(.@ { D.I.e.| B._.'.v ",
"S K H l = @ - ( B R -.9 j j R 4X!.x.9.b.x.}.l.1.< @ P f.|.s.% , y p 1 ; r c c j ",
"& @ @ O O & k c.G.Z.Q 7 j = R 3XR.X.B.E.Z.{.f.T w O f.=X1XP @ = @ @ O O O O @ O ",
"H G S._.'.Y l 6X=X2.G.U p @ R 3Xb.~ S.'.=XXX( L 0 @ 6.7X,XG @ y r r r w * = = O ",
"!.*.2.=X=X'.j 7X;XM.'._.u # K $X&.s G.=X|.[.( S : # ,.8Xx.g % m ^ (  .} ' B l j ",
"X.:.R L. .K l 8X=X=Xh.'.u + j !.4.f.Z.|._.S.( C = # d.6X[ i % |._.] _ 9 a Z j j ",
"N.]._.k.^ K j 6X.XoXoX_.u X j <X5XO.s '.'.L./ n @ : J.1X_ > @ ;XoX` F R Y R j = ",
"<X.X.X] 2 J j 8X|.9.4.'.u X = _.5X6 I |.P.1.B v @ & R =X4 ; & .X=X' V '.'.R j = ",
"7X.XZ.s D K = 6X.X{.]._.p . @ H %XG.Y K A n H c O j l j > - j c l p k l l l & & ",
"7X%Xz.V.3.Y = ;X=X.X_._.H o @ l c l j & & @ - = @ j l l j j l = = @ & @ @ @ & = ",
"^.&.|.[ ~ H & .X;XJ.'.'.K : @ j d e e e d v K Y R _.'.'.P.{ ( ` |.z.].f.j.'.j l ",
" .g..Xk.7 c @ .X;X2.R '.v : X w O.%.$.$.$.{ ;X;X;X-X<X<Xq.o.) c./.e.:X+.| Q = - ",
"} M..X{.'.j @ .X=X|.'.'.v : O * } X..... ./ P.<X;X..U.=XR.OX0.%.k..XA.,.1.J & = ",
"d.`.|.'.K = & '..X.X|._.v * O & S.}.] ^ E 7 B ;X;XP.}.&X+Xb.B.S.@X+X|.z.F H & @ ",
"R R K v c O = Y =X|.|.Y v =   & .X8X1.m m I '.T.=X=X%Xm.T..X_.{.n.6.=XP.L H @ @ ",
"= j j j j @ j c c c c c l & O % '.7X`.'.c...l.|.=X.X&XR.3.E.;X%X5. X.XL.5.H @ @ ",
"c p w % & & j & @ O @ O @ O O O Y '.Y Y V 2 V .X_. Xq.( V.|..X|.|.|.c.|.'.A @ @ ",
"Y.u.t.@.5.M K c j & & & & & & = l j & & @ & x H K g.g n K v K K K K Y v H l @ @ ",
"~.p.9.XX@X<Xm.r.7.@.) } ( W L Y Y J A v j j & & & & @ & @ & @ @ @ @ @ @ @ @ = @ ",
"<X>X#X<X;X;X<X;X%Xz.l.l.>.^ j.=X5X(.%X|.j l j = = = & & & & & & & & & & & j l & ",
";X6X;X+X+.s.<X1X6X<X^.@X.X.X.X=X-X9.G.H @ l a } } K R H z _ +.) 8 h R M H v l & ",
"%X_.K Z 1 L R R R Y R R _.|._.K Y K H c & & n 3 3 _.1X_.A C.C.V.A.=Xm.3..X.Xj & ",
"v & @ @ @ @ @ @ @ @ @ @ @ @ @ @ @ @ @ @ O @ A 4 i Y R K v R .Xm.$.[.f.D `.Y & & ",
"j = & & @ & @ @ @ @ @ @ @ @ @ @ @ @ @ @ % @ j o y @ % @ = c p , x p > l l l & = ",
"j j = = j = j = = & = = = & = = = = = & = = = = = = & = & = & @ @ @ % @ @ @ & O "
};
