/* XPM */
static char *result[] = {
/* columns rows colors chars-per-pixel */
"40 40 215 2 ",
"   c #380C04",
".  c #2B1D0A",
"X  c #371608",
"o  c #321C0B",
"O  c #2A210D",
"+  c #36240F",
"@  c #2D2515",
"#  c #322610",
"$  c #362913",
"%  c #392815",
"&  c #3A2D15",
"*  c #3E3016",
"=  c #3F3118",
"-  c #3D3525",
";  c #363636",
":  c #3C3C3C",
">  c #480803",
",  c #520100",
"<  c #590000",
"1  c #530B04",
"2  c #451C0D",
"3  c #54170B",
"4  c #5A1714",
"5  c #620000",
"6  c #6B0100",
"7  c #6E0803",
"8  c #740000",
"9  c #7C0000",
"0  c #661308",
"q  c #701513",
"w  c #50220F",
"e  c #442715",
"r  c #423217",
"t  c #433318",
"y  c #4A3619",
"u  c #4D391B",
"i  c #533B1C",
"p  c #553B1D",
"a  c #68371D",
"s  c #573C20",
"d  c #493A30",
"f  c #642826",
"g  c #6F2D2D",
"h  c #742C2C",
"j  c #6B3E22",
"k  c #743E22",
"l  c #6A3A34",
"z  c #6B3D3D",
"x  c #723030",
"c  c #5D411F",
"v  c #5E4221",
"b  c #5B4B36",
"n  c #644423",
"m  c #694624",
"M  c #6C4826",
"N  c #6E4928",
"B  c #714A27",
"V  c #754D29",
"C  c #7A4F2A",
"Z  c #74502E",
"A  c #7D512D",
"S  c #6F5438",
"D  c #424242",
"F  c #4C4C4C",
"G  c #565149",
"H  c #525252",
"J  c #595350",
"K  c #5B5B5B",
"L  c #724C4A",
"P  c #6A5942",
"I  c #626262",
"U  c #6E6C69",
"Y  c #756E6C",
"T  c #73716D",
"R  c #7C736D",
"E  c #757575",
"W  c #7C7772",
"Q  c #7A7A7A",
"!  c #850100",
"~  c #890000",
"^  c #930201",
"/  c #9C0000",
"(  c #960C07",
")  c #87140B",
"_  c #861714",
"`  c #A30000",
"'  c #A90000",
"]  c #BF0100",
"[  c #A11109",
"{  c #A61B12",
"}  c #962F1A",
"|  c #B23017",
" . c #892A2A",
".. c #982727",
"X. c #8A3939",
"o. c #923D3D",
"O. c #AC2E28",
"+. c #A43636",
"@. c #A33E3E",
"#. c #BD3737",
"$. c #B23E3E",
"%. c #C20302",
"&. c #D50000",
"*. c #DC0000",
"=. c #D90E09",
"-. c #D21C11",
";. c #E30000",
":. c #EB0000",
">. c #F30000",
",. c #FB0000",
"<. c #CB2D1B",
"1. c #D82014",
"2. c #CE3A30",
"3. c #9D4A2B",
"4. c #83552E",
"5. c #875833",
"6. c #8B5A33",
"7. c #945E36",
"8. c #B44B2E",
"9. c #946139",
"0. c #9B633A",
"q. c #A3663D",
"w. c #A5683E",
"e. c #A86B3F",
"r. c #C74D2F",
"t. c #854343",
"y. c #964444",
"u. c #A74646",
"i. c #AB4444",
"p. c #B54545",
"a. c #9A6244",
"s. c #AD6D43",
"d. c #B26F43",
"f. c #AB7149",
"g. c #BA7547",
"h. c #B3744A",
"j. c #B87548",
"k. c #BD7648",
"l. c #B97C53",
"z. c #876969",
"x. c #906C6C",
"c. c #827D7A",
"v. c #C34545",
"b. c #D94545",
"n. c #F54B48",
"m. c #CB6E43",
"M. c #C37A4B",
"N. c #C67A4B",
"B. c #C87F52",
"V. c #F1766D",
"C. c #AD8265",
"Z. c #B18261",
"A. c #CE814F",
"S. c #CC8253",
"D. c #C9875B",
"F. c #D58655",
"G. c #DA8856",
"H. c #DB8B5A",
"J. c #E38C58",
"K. c #E4915F",
"L. c #F3965E",
"P. c #C38E68",
"I. c #D48E64",
"U. c #D98F61",
"Y. c #C9916A",
"T. c #DC9264",
"R. c #DA966C",
"E. c #D19976",
"W. c #E79664",
"Q. c #F19D6B",
"!. c #E19E75",
"~. c #DCA17E",
"^. c #FAA36E",
"/. c #EEA376",
"(. c #ECA47A",
"). c #F9A777",
"_. c #F4AA7D",
"`. c #838383",
"'. c #8E8E8E",
"]. c #998888",
"[. c #949494",
"{. c #9B9B9B",
"}. c #A4A4A4",
"|. c #ABABAB",
" X c #B4B4B4",
".X c #BABABA",
"XX c #D8AD93",
"oX c #F7AE84",
"OX c #ECB08A",
"+X c #FBB286",
"@X c #F4B38B",
"#X c #FCB58D",
"$X c #F3B493",
"%X c #FAB791",
"&X c #FBBA95",
"*X c #F4BD9B",
"=X c #FCBD9A",
"-X c #ECB9A5",
";X c #F7C09F",
":X c #FCC19D",
">X c #EDC5AD",
",X c #F5C2A5",
"<X c #FCC4A4",
"1X c #FCC6A9",
"2X c #F6C8AD",
"3X c #FCCAAC",
"4X c #FCCDB2",
"5X c #FCD0B7",
"6X c #FCD3BC",
"7X c #C5C5C5",
"8X c #CACACA",
"9X c #FCD6C1",
"0X c #FCD9C5",
"qX c #FCDDCC",
"wX c #FCE5D8",
/* pixels */
"F H {..X7X8X8X8X8X8X8X8X7X8X7X7X8X7X X}.F H {..X7X8X8X8X8X8X7X8X8X7X7X8X8X7X X}.",
"F H }..Xx.x x x x x g g g l P S P P P b d e f l x x x x x x g g g g g x g x. X{.",
"F H {..Xt.< < < < < < < 3 u c V A C N n m u $ X > < < < < < < < < < < < < z |.{.",
"F H [..XL < < < < < < a A 9.Z./.(.~.Y.P.Z.f.Z s % 2 > < < < < < < < < < < z }.{.",
"F H {. Xt.5 6 5 5 6 k h.~.;X6XqXqXwXwXwXwX5X@XI.7.p $ > < 5 5 5 5 5 5 5 5 z }.{.",
"F H [.|.t.8 6 6 8 _ S.@X6X6X0XwXqXwXqXqX0X6X1X:X+XS.4.$ o < 5 6 6 8 6 6 6 z }.[.",
"F H [.[.X.8 8 9 ) N.%X4X6X6X6XqXqXqX0X5X3X5X5X3X=XQ.k.C $ o , 5 8 8 8 8 8 z {.'.",
"F H `.'.X.9 9 ~ 3._.<X5X6X6X6X6X5X0X3X+XR.(.;X6X0X+XG.s.4.y o 1 8 9 8 9 9 x [.'.",
"F F K K h ~ ^ ( I.:X<X5X6X6X6X5X=X(.f.A m A f.f.l.R.k.7.0.4.t o 6 9 9 ! 9 f K K ",
"F D : : q ^ / O.$X;X<X<XE.D._.0X=X0.u r n q.d.5.m n m m A 4.c + > 8 ! ~ ~ 4 : D ",
"`.`.`.`.X.` [ F.&X:X!.9.n n h.wX,X6.t i V V s t r t i u c B B r O 1 ~ ^ ^ h `.`.",
".X.X7X.Xu.` | _.<X%XK.9.M v 9.wX,X6.t y s.h.A N i y t u p M n & O X 9 / / y. X.X",
" X X.X.Xu.( m.@X=XoXd.4.B n e.wX*X7.n l.&X=X_.G.w.9.A B B B i * @ . 5 / / o.|. X",
" X|. X Xi.} S.&X(.9.m 5.l.I.$X5X_.d.k.J.OX3X4X2X2X;X/.J.q.B i & O . 1 ` ` y. X.X",
" X X X Xp.4.G.#Xh.A D._.:X3X3XOXh.5.h.0.S.:X1X1X:X_.^.J.e.V y & O O o / ` o. X|.",
".X|. X Xp.N T.&XS.(.:X3X5X*XR.n u & & & i Z.:X#X^.L.J.e.6.n y & . O . ~ ' y. X X",
"|.|.|.|.$.m W.=X@X3X6X5XoXf.c # $ $ O O O t P.^.L.G.k.0.M c r & O O O 1 ' 3.}.|.",
"}.}.}.}.$.m T.<X3X6X9X;Xf.u $ O O O O . O # u S.J.M.w.V p y * & O O O 3 ' o.{.{.",
"[.[.[.[.+.V U.1X4X0X5XR.m N O $ & & O O O O @ v e.w.6.j i t * & & O @ 3 ` X.{.{.",
"E E E Q ..4.B.<X3X6X3Xl.i u & t & y & @ O O & $ V d.7.M i r & & & * * e ! X.E E ",
"; ; ; ; _ { d.&X4X5X:X5.y = * u y O $ # O # $ & i N.k.A i t * & * & $ @ 2 q ; ; ",
"H H K K ..{ q.#X3X4X@X4.s v v t = = = @ O O & & i e.N.4.i r & & & $ * $ 2  .K K ",
"F H }..Xv.| 7.+X3X4X#X9.5.S.B.@ - G : @ @ O O & y w.A.4.i * & & & & % = 2 u.|.}.",
"F H {..Xv.%.3.).3X3X:Xh.C.&X9.O @ O O O O O O $ y 0.k.4.u * & & % y % @ 3 3. X{.",
"F H {..Xv.-.m.oX3X5X3XW.~.,XN O .         . # u i 0.q.M y * & $ & t & # 7 @.|.[.",
"F H [. Xv.<.e.R.3X5X5X=X3X,Xv X , 1 , 8 , > t M m G.A.N y & $ & & r r + ( @.}.[.",
"F H [. Xv.<.6.j.:X5X5X#X:X*Xn   4 4 4 L m j A V s.#XW.C t & & $ $ $ $ 0 ] @.}.[.",
"F H [.{.2.<.5.q.@X4X5X+X).<XY.A E.XX!.&XW.e.n N U.1X/.C c & $ & # + 0 ] &.@.{.[.",
"F H `.'.#.<.M.k.#X3X4X3X_.3X9X,X>X9X2X+XG.5.c m e.:XI.n * & & & $ w %.&.*.o.[.'.",
"F H T E O.=.m.K.).<X4X6X<X=XqX0X0X9X6X4X_.k.V 4.G.#Xf.c * * & & * 7 *.&.*...T E ",
"F F : ; [ *.2.d.H.&X4X9X9X0X0X0X0XqXqX0X;XQ.A.G.).T.Z t * & & $ e / *.*.*._ ; : ",
"I K I I O.;.=.0.0.W.<X3X5X0XqX6X0XqXqX9X:X^.F.F.A.C t & * * & $ 1 %.*.;.*...K I ",
"7X7X7X7Xb.;.;.| O.F.%X<X<X6XqXqX5X6X9X3X&XW.g.7.n t $ & = % & % 8 *.;.;.;.p..X7X",
" X X.X.Xb.;.;.;.:.r.H.%X<X:X3X9X5X3X;X_.H.q.M t + O + & & & & & ~ ;.;.;.:.$.|..X",
" X.X X.Xb.:.:.:.:.1.d.H.=X=X#X:X_.U.A.0.B i $ @ O $ & * % & = t ) ;.:.:.:.$. X X",
".X|.|. Xb.>.:.:.>.:.r.g.G.^.^.M.4.c y r $ $ # & r = & & % * = t a.n.:.;.:.p.|..X",
"|.|.|.|.b.>.>.>.>.>.1.d.g.A.A.g.4.u t r r = = & & & $ & = = y b -XV.>.>.:.$.}.}.",
"{.}.}.}.b.>.,.>.,.,.,.8.d.j.j.s.7.i t r * & & $ $ & & * * n C.>X9XV.>.>.>.$.{.}.",
"{.[.[.[.].z.z.z.z.L l K Y c.R W W T T E T U U U U T U T U F J Y Q R z.z.x.R {.{.",
"E E E E E E E E E H H I T E E E E E E Q E E E E E E E E E K F I E E E E E Q Q E "
};
